<?xml version="1.0" encoding="UTF-8"?>
<svg id="Layer_2" data-name="Layer 2" xmlns="http://www.w3.org/2000/svg" viewBox="0 0 516.41 263.43">
  <defs>
    <style>
      .cls-1 {
        fill: #fff;
        stroke-width: 0px;
      }
    </style>
  </defs>
  <g id="Layer_1-2" data-name="Layer 1">
    <g>
      <g>
        <path class="cls-1" d="M127.2,217.68c-1.52-4.01-3.67-7.6-6.44-10.77-2.76-3.17-6.09-5.73-9.98-7.69-3.88-1.96-8.19-2.94-12.92-2.94s-8.85.92-12.73,2.75c-3.89,1.84-7.24,4.31-10.07,7.41-2.83,3.11-5.05,6.69-6.67,10.73-1.62,4.04-2.42,8.27-2.42,12.68s.76,8.36,2.29,12.4c1.52,4.04,3.68,7.63,6.48,10.77,2.8,3.14,6.14,5.66,10.03,7.56,3.88,1.9,8.19,2.85,12.92,2.85s8.75-.92,12.64-2.75c3.88-1.83,7.26-4.29,10.12-7.37,2.86-3.08,5.09-6.64,6.67-10.68,1.58-4.04,2.38-8.27,2.38-12.69,0-4.16-.76-8.25-2.29-12.26ZM117.37,238.62c-.93,2.86-2.3,5.44-4.1,7.74-1.8,2.3-4,4.15-6.58,5.55-2.58,1.4-5.55,2.1-8.91,2.1s-6.16-.67-8.77-2c-2.61-1.34-4.83-3.13-6.67-5.37-1.84-2.24-3.25-4.82-4.25-7.74s-1.49-5.94-1.49-9.05.48-5.92,1.45-8.81c.96-2.89,2.35-5.45,4.15-7.69,1.8-2.24,4.01-4.06,6.62-5.46,2.61-1.4,5.6-2.1,8.95-2.1,3.17,0,6.05.67,8.63,2.01,2.58,1.34,4.78,3.11,6.62,5.32,1.83,2.21,3.25,4.76,4.25,7.65.99,2.89,1.49,5.92,1.49,9.09,0,2.98-.47,5.91-1.4,8.77Z"/>
        <path class="cls-1" d="M187.77,196.83v47.66l-37.87-47.76h-8.21v66.23h10.45v-46.64l37.5,46.64h8.67v-66.13h-10.54Z"/>
        <path class="cls-1" d="M318.51,237.78c1.93-.62,3.7-1.57,5.32-2.84,1.62-1.28,2.98-2.78,4.1-4.53,1.12-1.74,1.99-3.64,2.61-5.69.62-2.05.93-4.2.93-6.44,0-2.67-.51-5.3-1.54-7.88-1.02-2.58-2.44-4.88-4.24-6.9-1.81-2.02-3.97-3.65-6.49-4.89-2.52-1.24-5.27-1.87-8.25-1.87h-28.82v66.23h10.45v-23.04h15.3l14.37,23.04h11.84l-15.58-25.19ZM314.92,229.71c-1.21.65-2.57.98-4.06.98h-18.28v-24.72h17.72c1.37,0,2.69.33,3.97.98,1.27.66,2.39,1.54,3.36,2.66.96,1.12,1.74,2.43,2.33,3.92s.89,3.08.89,4.76-.25,3.26-.75,4.76c-.5,1.49-1.18,2.81-2.05,3.97-.87,1.15-1.91,2.05-3.12,2.7Z"/>
        <path class="cls-1" d="M358.94,253.73v-20.24h29.57v-8.68h-29.57v-18.84h34.14v-9.24h-44.59v66.23h45.43v-9.23h-34.98Z"/>
        <path class="cls-1" d="M404.66,196.74v9.24h22.11v56.99h10.54v-56.99h22.01v-9.24h-54.66Z"/>
        <path class="cls-1" d="M480.52,253.73v-20.24h29.57v-8.68h-29.57v-18.84h34.14v-9.24h-44.59v66.23h45.43v-9.23h-34.98Z"/>
        <path class="cls-1" d="M45.18,249.48c-1.47,1.22-3.05,2.2-4.72,2.92-1.67.73-3.38,1.21-5.12,1.43-1.74.22-3.42.25-5.03.08-3.09-.33-5.87-1.29-8.32-2.9-2.46-1.6-4.51-3.62-6.16-6.05-1.65-2.42-2.85-5.15-3.59-8.16s-.95-6.13-.61-9.35c.3-2.84,1.05-5.64,2.24-8.39,1.2-2.75,2.8-5.17,4.8-7.28,2.01-2.1,4.38-3.71,7.13-4.83,2.75-1.12,5.85-1.5,9.31-1.13,1.55.17,3.14.5,4.77,1.02,1.63.52,3.18,1.26,4.64,2.23,1.46.97,2.77,2.2,3.93,3.7,1.16,1.5,2.09,3.29,2.81,5.36l8.74-4.61c-1.71-4.49-4.56-8.3-8.55-11.41-3.98-3.11-8.98-4.98-14.98-5.61-5.01-.53-9.6-.05-13.75,1.46-4.16,1.5-7.79,3.66-10.87,6.5-3.08,2.83-5.54,6.14-7.38,9.91-1.84,3.78-2.97,7.64-3.38,11.6-.45,4.21-.11,8.42,1.01,12.63,1.12,4.21,2.9,8.06,5.35,11.54,2.45,3.48,5.48,6.41,9.11,8.8,3.62,2.38,7.75,3.82,12.39,4.31,2.6.28,5.28.21,8.04-.18,2.76-.39,5.42-1.12,7.97-2.16,2.55-1.05,4.88-2.41,7-4.09,2.12-1.68,3.83-3.71,5.14-6.07l-8.11-5.83c-1.07,1.83-2.34,3.35-3.81,4.57Z"/>
        <g>
          <path class="cls-1" d="M263.28,253.52c-1.58,2.19-3.53,3.99-5.83,5.41-2.3,1.42-4.78,2.5-7.43,3.24-2.65.73-5.38,1.13-8.17,1.2-2.79.06-5.45-.19-8-.77-4.55-1.04-8.48-2.95-11.8-5.75-3.32-2.8-5.99-6.07-8-9.82-2.02-3.74-3.33-7.77-3.94-12.09-.62-4.32-.45-8.54.49-12.66.89-3.88,2.46-7.58,4.74-11.12,2.27-3.53,5.1-6.52,8.5-8.97,3.39-2.45,7.25-4.17,11.56-5.16,4.31-1,8.92-.93,13.83.18,5.88,1.34,10.62,3.79,14.21,7.35,3.54,3.52,5.91,7.57,7.09,12.16l-7.75,3.06c-.77.29-1.29.21-1.9-.37-2.79-2.68-5.65-5.27-8.42-7.96-1.64-1.6-3.46-2.19-5.71-1.67-5.79,1.35-11.59,2.65-17.39,4-1.74.41-2.92,1.49-3.43,3.24-1.57,5.25-3.19,10.49-4.71,15.75-.51,1.79.07,3.4,1.42,4.67,3.06,2.86,6.14,5.7,9.22,8.55,1.19,1.09,2.43,2.14,3.62,3.24,1.27,1.18,2.77,1.45,4.37,1.12,5.04-1.01,10.07-2.1,15.1-3.12.43-.08,1.05.02,1.36.29l1.71,1.46,5.26,4.53Z"/>
          <line class="cls-1" x1="270.52" y1="216.72" x2="262.76" y2="219.78"/>
          <path class="cls-1" d="M264.48,228.2c-.56,5.42-1.87,10.58-5.05,15.09-.78,1.1-1.79,1.95-3.11,1.71-1.38-.25-1.94-1.55-2.25-2.82-.75-3.06-.2-6.06.63-9,.89-3.17,2.19-6.16,4.19-8.81.97-1.29,2.28-2.37,3.77-1.93,1.61.47,1.7,2.32,1.88,3.83.07.63-.03,1.28-.05,1.92Z"/>
          <path class="cls-1" d="M235.58,242.26c1.23-9.57,2.92-19.45,8.45-28.19.86-1.35,1.89-1.82,2.67-1.2.68.54,1.1,1.19.49,2.11-4.24,6.34-5.98,13.59-7.46,20.92-.46,2.25-.7,4.55-.91,6.85-.11,1.25-.17,2.39-1.78,2.38-1.72-.01-1.39-1.35-1.47-2.86Z"/>
        </g>
      </g>
      <g>
        <path class="cls-1" d="M129.78,48.2c.1,38,.07,76.01.05,114.01,0,.69-.02,2.4-.02,2.4-28.07,0-56.21,0-84.4,0v-35.19c.93.55,1.71.94,2.41,1.44,8.97,6.43,17.91,12.91,26.92,19.29.98.7,2.33,1.23,3.51,1.25,8.66.18,17.33.15,26,.33,2.54.05,2.2-1.55,2.2-3.07,0-10.57,0-21.14,0-31.71,0-18.17-.01-36.34.08-54.51.01-2.12-.56-3.44-2.4-4.63-6.03-3.89-11.92-7.99-18.56-12.49v86.88c-20.77-14.56-40.79-28.61-61.38-43.05v75.57H0V46.61l61.16,39.52V0c1.24.61,1.98.86,2.61,1.28"/>
        <path class="cls-1" d="M516.41,47.71c-.09,37.18-.1,77.19-.12,114.37,0,.7-.1,1.39-.2,2.64-4.3,0-8.52.04-12.73-.01-5.2-.06-13.41-.01-15.68-.1-.87-.51-6.25-8.23-9.33-12.3-13.76-18.16-27.49-36.35-41.24-54.52-.13-.17-.39-.22-1.14-.62v67.49h-31.24c0-38.73,0-77.6,0-116.93,3.62,0,7.52,0,11.27,0h17.67s.88,1.18,1.77,2.35c15.76,20.83,31.4,41.75,47.06,62.65.33.45.73.85,1.55,1.8V22.92l32.35,24.79Z"/>
        <path class="cls-1" d="M149.78,164.72V48.37h99.42v25.27h-67.92v20.35h63.88v24.98h-63.95v19.39h68.06v26.37h-99.49Z"/>
        <path class="cls-1" d="M378.2,77.45c-11.15-20.18-29.6-29.27-52.32-29.72-37.34-.74-63.16,26.97-62.31,59.13.39,22.45,9.84,39.49,29.99,50.21,12.85,6.84,26.51,9,40.81,6.89,47.12-6.94,61.32-54.84,43.84-86.5ZM322.64,138.45c-17.1-.2-30.47-14.72-30.27-32.88.21-19.27,13.28-32.35,32.16-32.2,18.55.15,31.68,13.67,31.54,32.49-.14,19.45-13.86,32.82-33.43,32.59Z"/>
      </g>
    </g>
  </g>
</svg>